<svg width="43" height="48" viewBox="0 0 43 48" fill="none" xmlns="http://www.w3.org/2000/svg">
<path d="M42.324 0L38.4681 43.195L21.1361 48L3.85174 43.2018L0 0H42.324Z" fill="#264DE4"/>
<path d="M35.1673 40.4444L38.4623 3.53235H21.1621V44.3272L35.1673 40.4444Z" fill="#2965F1"/>
<path d="M8.83008 19.5553L9.30497 24.8538H21.162V19.5553H8.83008Z" fill="#EBEBEB"/>
<path d="M21.1621 8.83093H21.1438H7.87598L8.35763 14.1295H21.1621V8.83093Z" fill="#EBEBEB"/>
<path d="M21.1618 38.8288V33.3161L21.1386 33.3223L15.2376 31.7289L14.8604 27.5031H11.993H9.5415L10.2838 35.8225L21.1374 38.8355L21.1618 38.8288Z" fill="#EBEBEB"/>
<path d="M27.6681 24.8537L27.0531 31.7255L21.1436 33.3205V38.833L32.0058 35.8225L32.0855 34.9273L33.3306 20.9781L33.4599 19.5553L34.4164 8.83093H21.1436V14.1295H28.6097L28.1276 19.5553H21.1436V24.8537H27.6681Z" fill="white"/>
</svg>
