<svg width="48" height="48" viewBox="0 0 48 48" fill="none" xmlns="http://www.w3.org/2000/svg">
<rect width="48" height="48" rx="5" fill="#D8D8D8"/>
<mask id="mask0" mask-type="alpha" maskUnits="userSpaceOnUse" x="0" y="0" width="48" height="48">
<rect width="48" height="48" rx="5" fill="white"/>
</mask>
<g mask="url(#mask0)">
<path d="M0 48V0H48V48H0Z" fill="#FFD600"/>
<path fill-rule="evenodd" clip-rule="evenodd" d="M19.11 38.176C17.6354 38.176 16.61 37.2467 15.9354 36.0387L12.4434 38.176C13.454 40.3387 15.934 42.6667 19.37 42.6667C23.1727 42.6667 25.7767 40.624 25.7767 36.1347V21.3334H21.3327V35.452C21.3327 37.6187 20.5207 38.176 19.11 38.176ZM35.4335 38.864C33.3095 38.864 32.3068 37.428 31.3842 35.9294L28.0002 38.176C29.2642 40.66 31.5348 42.6667 35.5335 42.6667C39.6215 42.6667 42.6668 40.5534 42.6668 36.6974C42.6668 33.1187 40.6028 31.5267 36.9428 29.968L35.8668 29.5094C34.0202 28.7134 33.2202 28.1934 33.2202 26.908C33.2202 25.868 34.0188 25.072 35.2802 25.072C36.5162 25.072 37.3135 25.5907 38.0508 26.908L41.4028 24.7654C39.9842 22.2827 38.0175 21.3347 35.2802 21.3347C31.4362 21.3347 28.9762 23.78 28.9762 26.9934C28.9762 30.48 31.0415 32.1307 34.1468 33.448L35.2228 33.9067C37.1855 34.7614 38.1535 35.2827 38.1535 36.7507C38.1535 37.9774 37.2175 38.864 35.4335 38.864Z" fill="#000001"/>
</g>
</svg>
