<svg width="158" height="147" viewBox="0 0 158 147" fill="none" xmlns="http://www.w3.org/2000/svg">
<path d="M64.5293 146.239C62.5827 146.239 60.6493 145.729 58.9427 144.746L41.16 134.218C38.504 132.733 39.8 132.207 40.676 131.905C44.2174 130.665 44.936 130.385 48.716 128.238C49.1133 128.011 49.6333 128.091 50.04 128.331L63.7013 136.438C64.1946 136.705 64.8947 136.705 65.352 136.438L118.619 105.691C119.112 105.411 119.432 104.838 119.432 104.251V42.7849C119.432 42.1715 119.112 41.6249 118.608 41.3182L65.3627 10.5983C64.8693 10.3049 64.216 10.3049 63.7227 10.5983L10.4881 41.3182C9.97208 41.6115 9.64409 42.1848 9.64409 42.7715V104.238C9.64409 104.825 9.96408 105.385 10.4707 105.665L25.0574 114.091C32.9774 118.051 37.8174 113.385 37.8174 108.691V48.0248C37.8174 47.1582 38.4974 46.4915 39.364 46.4915H46.1107C46.9507 46.4915 47.644 47.1582 47.644 48.0248V108.718C47.644 119.278 41.884 125.345 31.8707 125.345C28.7907 125.345 26.364 125.345 19.5907 122.011L5.61742 113.958C2.16409 111.958 0.0307617 108.225 0.0307617 104.238V42.7715C0.0307617 38.7715 2.16409 35.0382 5.61742 33.0649L58.9373 2.30494C62.3107 0.398273 66.7906 0.398273 70.1373 2.30494L123.391 33.0782C126.831 35.0649 128.977 38.7849 128.977 42.7849V104.251C128.977 108.238 126.831 111.958 123.391 113.958L70.1373 144.718C68.4306 145.705 66.4973 146.211 64.524 146.211" fill="#689F63"/>
<path d="M80.9828 103.885C57.6762 103.885 52.7896 93.1861 52.7896 84.2128C52.7896 83.3595 53.4775 82.6795 54.3322 82.6795H61.2122C61.9722 82.6795 62.6122 83.2328 62.7322 83.9835C63.7722 90.9941 66.8655 94.5301 80.9588 94.5301C92.1855 94.5301 96.9588 91.9941 96.9588 86.0408C96.9588 82.6141 95.5988 80.0675 78.1588 78.3608C63.5722 76.9208 54.5589 73.7075 54.5589 62.0409C54.5589 51.2942 63.6255 44.8942 78.8122 44.8942C95.8655 44.8942 104.319 50.8142 105.385 63.5342C105.425 63.9742 105.265 64.4008 104.972 64.7208C104.679 65.0275 104.265 65.2142 103.839 65.2142H96.9188C96.1988 65.2142 95.5721 64.7075 95.4255 64.0142C93.7588 56.6409 89.7322 54.2809 78.7855 54.2809C66.5322 54.2809 65.1055 58.5475 65.1055 61.7475C65.1055 65.6275 66.7855 66.7608 83.3188 68.9475C99.6921 71.1208 107.465 74.1875 107.465 85.6941C107.465 97.2941 97.7855 103.947 80.9055 103.947L80.9828 103.885ZM145.785 38.7609H147.572C149.039 38.7609 149.319 37.7342 149.319 37.1342C149.319 35.5609 148.239 35.5609 147.639 35.5609H145.799L145.785 38.7609ZM143.612 33.7209H147.572C148.932 33.7209 151.599 33.7209 151.599 36.7609C151.599 38.8809 150.239 39.3209 149.425 39.5875C151.012 39.6942 151.119 40.7342 151.332 42.2009C151.439 43.1209 151.612 44.7075 151.932 45.2409H149.492C149.425 44.7075 149.052 41.7742 149.052 41.6142C148.892 40.9609 148.665 40.6409 147.852 40.6409H145.839V45.2542H143.612V33.7209ZM138.852 39.4542C138.852 44.2275 142.705 48.0942 147.439 48.0942C152.212 48.0942 156.065 44.1475 156.065 39.4542C156.065 34.6676 152.159 30.8676 147.425 30.8676C142.759 30.8676 138.839 34.6142 138.839 39.4409L138.852 39.4542ZM157.719 39.4809C157.719 45.1342 153.092 49.7475 147.452 49.7475C141.852 49.7475 137.185 45.1875 137.185 39.4809C137.185 33.6676 141.959 29.2142 147.452 29.2142C152.985 29.2142 157.705 33.6809 157.705 39.4809" fill="#689F63"/>
</svg>
