<svg width="601" height="72" fill="none" xmlns="http://www.w3.org/2000/svg">
    <path d="M8.5 22.6H3.3c-1.8 0-2.8-.8-2.8-2.4 0-1.6.9-2.4 2.8-2.4h5.2v-4.7C8.5 5 12.6 1 20.7 1c3.3 0 6.1.7 8.3 1.9 2.8 1.7 4.2 4.3 4.2 7.4 0 2.1-.8 3-2.4 3-1.1 0-1.9-.7-2.5-1.9-.7-2.1-1.3-3.3-1.7-3.8-.9-1.2-2.9-1.9-5.8-1.9-5 0-7.3 2.5-7.3 7.4v4.5H23c2.1 0 3.2.8 3.2 2.4 0 1.6-1.1 2.4-3.2 2.4h-9.5v30.4c0 1.9-.8 2.8-2.4 2.8-1.6 0-2.4-1-2.4-2.8V22.5h-.2v.1zM51.1 50.4V22.7H44c-1.9 0-2.9-.8-2.9-2.4 0-1.6.9-2.4 2.9-2.4h9.4c1.6 0 2.5 1.5 2.5 4.1 2.9-3.2 6.1-4.9 9.3-4.9 2.8 0 4.8.8 6.4 2.5 1.6 1.7 2.4 4 2.4 6.6 0 1.9-.8 2.8-2.4 2.8-.9 0-1.6-.7-1.9-1.9-.7-2.2-1.1-3.4-1.2-3.6-.7-1.2-1.9-1.9-3.7-1.9-1.8 0-3.6.7-5.1 2-.9.7-2.2 2.1-3.9 4.3V50h8.9c1.9 0 2.9.8 2.9 2.2 0 1.6-.9 2.5-2.9 2.5H43.9c-1.9 0-2.9-.8-2.9-2.4 0-1.6.9-2.4 2.9-2.4h7.2v.5zM86.9 37.3v5.3c0 5.7 3.9 8.5 11.9 8.5 2.9 0 5.2-.3 7.1-1 .9-.3 2.6-1.2 4.8-2.8 1.4-1.3 2.5-2 2.9-2 1.3 0 1.9.7 1.9 2.1 0 1.4-.9 2.9-2.9 4.5-3.2 2.5-7.9 3.8-14.2 3.8-11 0-16.5-4.4-16.5-13.1V29.4c0-3 1.2-5.7 3.4-7.8 3-2.9 7.5-4.3 13.5-4.3 10.8 0 16.1 5.4 16.1 16.2 0 2.6-1.1 4-3 4H86.8l.1-.2zm0-4.7h23.5c0-7.2-3.9-10.7-11.9-10.7-2.9 0-5.5.7-7.9 2-2.4 1.7-3.7 3.7-3.7 5.9v2.8zM128 37.3v5.3c0 5.7 3.9 8.5 11.9 8.5 2.9 0 5.2-.3 7.1-1 .9-.3 2.6-1.2 4.8-2.8 1.4-1.3 2.5-2 2.9-2 1.3 0 1.9.7 1.9 2.1 0 1.4-.9 2.9-2.9 4.5-3.2 2.5-7.9 3.8-14.2 3.8-11 0-16.5-4.4-16.5-13.1V29.4c0-3 1.2-5.7 3.4-7.8 3-2.9 7.5-4.3 13.5-4.3 10.8 0 16.1 5.4 16.1 16.2 0 2.6-1.1 4-3 4h-25.1l.1-.2zm0-4.7h23.5c0-7.2-3.9-10.7-11.9-10.7-2.9 0-5.5.7-7.9 2-2.5 1.7-3.7 3.7-3.7 5.9v2.8zM164.9 40.4V19.7c0-10.9 5.7-16.2 17-16.2 4.6 0 8.3 1.1 11.2 3 3.3 2.5 4.8 5.9 4.8 10.2 0 2-.8 3-2.5 3-1.2 0-1.9-1-2.5-2.9-.3-1.6-.9-3.2-1.8-4.7-1.4-2.6-4.6-3.8-9.5-3.8-4.2 0-7.2 1.1-9 3.2-1.7 2-2.6 5.1-2.6 9.4v17.2c0 4.5.9 7.7 2.8 9.7 1.9 2.1 5 3.3 9.2 3.3 6.4 0 10.1-2.2 11-6.7.4-1.7.5-2.5.5-2.6.4-1 1.1-1.5 1.9-1.5 1.6 0 2.5 1.1 2.5 3 0 4.1-1.7 7.3-5.1 9.8-2.8 1.9-6.3 2.8-10.8 2.8-5.2 0-9.3-1.2-12.3-3.7-3.3-2.6-4.8-6.6-4.8-11.8zM205.5 43.3V29.7c0-8.4 5.5-12.5 16.5-12.5s16.5 4.1 16.5 12.5v13.6c0 8.4-5.4 12.5-16.3 12.5-11.2 0-16.7-4.2-16.7-12.5zm28.2 0V29.7c0-5.2-3.9-7.8-11.9-7.8-7.6 0-11.5 2.6-11.5 7.8v13.6c0 5.2 3.9 7.8 11.8 7.7 7.8 0 11.6-2.5 11.6-7.7zM274.6 51.3c-2.2 1.7-4.2 2.8-5.9 3.4-1.8.7-4.1 1.1-6.7 1.1-4.4 0-8-1-10.8-2.8-3.2-2.1-4.7-5.3-4.7-9.7V29.4c0-4.1 1.6-7.3 4.6-9.4 2.6-1.9 6.2-2.8 10.4-2.8 2.8 0 5.1.3 6.9 1 1.8.7 3.8 1.9 5.9 3.6V4.7c0-2.2.8-3.4 2.2-3.4 1.6 0 2.5 1.2 2.5 3.4v48.7c0 1.7-.8 2.5-2.2 2.5-.9 0-1.6-.5-1.8-1.6-.3-.9-.4-1.8-.4-3zm-.3-5.6V26.6c-2.4-1.7-4.2-2.9-5.7-3.4-1.9-.8-4.1-1.2-6.4-1.2-3 0-5.5.5-7.3 1.7-2.4 1.5-3.6 3.6-3.6 6.2V43c0 2.8 1.2 4.9 3.7 6.3 1.9 1.1 4.4 1.7 7.5 1.7 2.5 0 4.7-.4 6.6-1.2 1.6-.9 3.3-2.3 5.2-4.1zM292.4 37.3v5.3c0 5.7 3.9 8.5 11.9 8.5 2.9 0 5.2-.3 7.1-1 .9-.3 2.6-1.2 4.8-2.8 1.4-1.3 2.5-2 2.9-2 1.3 0 1.9.7 1.9 2.1 0 1.4-.9 2.9-2.9 4.5-3.2 2.5-7.9 3.8-14.2 3.8-11 0-16.5-4.4-16.5-13.1V29.4c0-3 1.2-5.7 3.4-7.8 3-2.9 7.5-4.3 13.5-4.3 10.8 0 16.1 5.4 16.1 16.2 0 2.6-1.1 4-3 4h-25.1l.1-.2zm0-4.7h23.5c0-7.2-3.9-10.7-11.9-10.7-2.9 0-5.5.7-7.9 2-2.5 1.7-3.7 3.7-3.7 5.9v2.8zM329.3 40.4V19.7c0-10.9 5.7-16.2 17-16.2 4.6 0 8.3 1.1 11.2 3 3.3 2.5 4.8 5.9 4.8 10.2 0 2-.8 3-2.5 3-1.2 0-1.9-1-2.5-2.9-.3-1.6-.9-3.2-1.8-4.7-1.4-2.6-4.6-3.8-9.5-3.8-4.2 0-7.2 1.1-9 3.2-1.7 2-2.6 5.1-2.6 9.4v17.2c0 4.5.9 7.7 2.8 9.7 1.9 2.1 5 3.3 9.2 3.3 6.4 0 10.1-2.2 11-6.7.4-1.7.5-2.5.5-2.6.4-1 1.1-1.5 1.9-1.5 1.6 0 2.5 1.1 2.5 3 0 4.1-1.7 7.3-5.1 9.8-2.8 1.9-6.3 2.8-10.8 2.8-5.2 0-9.3-1.2-12.3-3.7-3.2-2.6-4.8-6.6-4.8-11.8zM396.4 51.3c-2.4 1.7-4.2 2.9-5.5 3.4-1.7.7-3.8 1.1-6.4 1.1-3.9 0-7.2-.8-9.7-2.5-2.9-2-4.4-4.9-4.4-8.8 0-3.8 1.6-6.9 4.6-9 2.6-2 6.1-2.9 9.9-2.9 3.3 0 6.9.8 11.2 2.2V29c0-2.8-1.3-4.8-3.9-5.9-1.8-.8-4.1-1.2-6.7-1.2-6.2 0-9.4 1.7-10.1 5.2-.3 1.6-.5 2.4-.5 2.5-.4.8-1.1 1.2-1.9 1.2-1.7 0-2.6-1-2.6-2.8 0-2.5.9-4.8 2.9-6.9 2.4-2.6 6.7-4 12.7-4 4.8 0 8.4.8 10.8 2.4 2.8 2 4.2 5.3 4.2 9.9v17c0 2 .4 3.3 1.2 4 .1.1.9.5 2.2 1.1.8.4 1.2 1.1 1.2 2.2 0 1.3-.7 2-2.1 2-.4 0-1.1-.1-2.1-.5-1.8-.7-3-1.1-3.3-1.2-.9-.5-1.5-1.4-1.7-2.7zm-.3-5v-7c-3.7-1.2-7.2-1.9-10.4-1.9-7.1 0-10.6 2.2-10.6 6.9 0 2.4 1.1 4.3 3.2 5.3 1.7 1 3.8 1.5 6.4 1.5 2.2 0 4.3-.4 6.2-1.3 1.4-.6 3.1-1.9 5.2-3.5zM414.7 21.2c1.2-1.5 2.2-2.5 3-2.9 1.1-.7 2.4-1.1 4.1-1.1 2.6 0 4.8 1.3 6.8 4.1 1.3-1.6 2.5-2.6 3.6-3.2 1.2-.7 2.8-1 4.6-1 5.7 0 8.5 2.8 8.5 8.4v26.9c0 2.2-.8 3.3-2.5 3.3-1.6 0-2.4-1.1-2.4-3.3V27.1c0-3.4-1.4-5.3-4.2-5.3-2.1 0-4.2 1.3-6.1 3.8v26.8c0 2.2-.8 3.3-2.4 3.3-1.6 0-2.4-1.1-2.4-3.3V27.6c0-3.8-1.6-5.7-4.6-5.7-1.9 0-3.8 1.3-5.8 3.8v26.7c0 2.2-.8 3.3-2.5 3.3-1.6 0-2.4-1.1-2.4-3.3V19.5c0-1.6.7-2.4 1.9-2.4.7 0 1.3.5 1.7 1.5.9.7 1.1 1.7 1.1 2.6zM457.3 21.2c3.7-2.6 8-4 12.7-4 9.9 0 14.9 4.3 14.9 12.6v13.8c0 4-1.4 7-4.2 9.3-2.5 2-5.9 3-10.2 3-5.1 0-9.4-1.3-13.3-4.1v15.7c0 2.4-.8 3.6-2.4 3.6-1.6 0-2.4-1.2-2.4-3.6V20.9c0-2.4.7-3.6 1.9-3.6.7 0 1.3.5 1.8 1.5.6.6 1 1.6 1.2 2.4zm0 25.2c3.4 3 7.6 4.7 12.4 4.7 3 0 5.4-.5 7.2-1.7 2.2-1.3 3.3-3.3 3.3-5.8V29.8c0-2.9-1.2-4.9-3.6-6.2-1.8-1-4.3-1.5-7.3-1.5-2.8 0-5 .4-6.7 1.2-1.6.7-3.3 2.1-5.4 4.3v18.8h.1zM501.2 33.2c0-10.5 3.6-19.8 10.8-28 2.6-3 4.7-4.5 6.2-4.5.5 0 1.1.1 1.4.5.3.4.7.8.7 1.3 0 .8-.9 2-2.8 3.8-7.5 7.3-11.3 16.3-11.3 27.1 0 12 3.9 21.6 11.7 29 1.6 1.5 2.4 2.6 2.4 3.6 0 .5-.3 1.1-.7 1.5-.4.4-.9.7-1.4.7-1.8 0-4.3-2.1-7.6-6.3-6.4-7.8-9.4-17.4-9.4-28.7zM600.5 35.9c0 10.5-3.6 19.8-10.8 28-2.6 3-4.7 4.5-6.2 4.5-.5 0-1.1-.1-1.4-.5-.4-.4-.7-1-.7-1.5 0-.8.9-2 2.8-3.7 7.5-7.3 11.3-16.3 11.3-27.1 0-12-3.9-21.6-11.7-29-1.6-1.5-2.4-2.6-2.4-3.6 0-.5.3-1.1.7-1.5.4-.4.9-.7 1.4-.7 1.7 0 4.3 2.1 7.6 6.3 6.2 8.1 9.4 17.7 9.4 28.8zM573.5 66H528c-1.4 0-2.8-1.1-2.8-2.8 0-1.5 1.1-2.8 2.8-2.8h45.4c1.4 0 2.8 1.1 2.8 2.8 0 1.7-1.1 2.8-2.7 2.8zM541.3 6.5s3.8 2.6 3.8 7.4c0 8.3-11.1 17.5-11.1 26 0 9.3 7 15.3 13.8 17.1.9.2 1.4-.9.2-1.2-2.7-.7-5.8-4.3-5.8-10 0-5.3 5-7.2 7-9.8 2.1-2.6 1.6-5.9.4-6.9-1.2-1-.4-2.2 1.8-.7 2.2 1.5 4 4.4 3.3 7.1-.8 3.5.3 5.5 2.1 5.7 1.8.2 3.8-.7 3.6-2.4-.2-1.7-1.2-3.5-.6-3.5 1.3 0 4 3.2 4 8.3 0 5.1-4.2 8.6-5.4 9.9-.8.8.2 1.9 1.3 1.3.5-.2 1.6-.9 2.3-1.4 3.3-2.4 8.4-7.1 8.4-16 0-9.3-3.5-13.4-7-16.8-3.5-3.5-4.4-2.6-3.4-.9 3 5.2 1.2 6.9-1 6.9-2.6 0-2.7-5.8-3.7-10.3-2.2-9.9-11.1-11.6-12.8-11.7-1.7 0-3.2 1-1.2 1.9z" fill="#000"/>
</svg>
