<svg width="600" height="201" viewBox="0 0 600 201" fill="none" xmlns="http://www.w3.org/2000/svg">
<path fill-rule="evenodd" clip-rule="evenodd" d="M258.7 12.5C255.9 11.4001 252.8 11.1001 249.3 11.1001C242.6 11.1001 237.4 13.2002 233.9 16.6001C230.4 20.5 228.7 25.7002 228.7 32V72.5C228.7 79.1001 230.5 84 233.6 87.5C236.7 90.7002 242 92.4001 249.3 92.4001C255.9 92.4001 260.8 90.7002 264.3 87.2002C267.8 83.7002 269.5 78.8 269.5 72.2002V47.4001H248.6V61H253.8V73.2002C253.8 74.6001 253.4 75.6001 252.4 76.3C251.4 77 250 77.3 248.6 77.3C246.5 77.3 245.5 76.9001 244.8 75.9001C244.4 74.9001 244.1 73.8 244.1 72.8V32C244.1 31.8813 244.147 31.7002 244.204 31.481C244.291 31.1462 244.4 30.7231 244.4 30.3C244.4 29.6001 244.8 28.9001 245.8 27.9001C245.927 27.7734 246.043 27.6167 246.166 27.4521C246.43 27.0969 246.722 26.7051 247.2 26.5C247.9 26.1001 248.6 25.8 249.6 25.8C251.3 25.8 252.4 26.8 253.4 28.2002C254.1 29.9001 254.8 31.7002 254.8 34.1001L269.8 31.3C270.1 28.5 269.8 25.7002 269.1 23.3C268.1 20.9001 267 18.4001 265.3 16.7002C263.6 14.9001 261.5 13.5 258.7 12.5ZM276.2 11.8V91.7002V92H312.9V77H292V58.9001H310.5V43.9001H292V26.8H312.9V11.8H276.2ZM347 11.8V49.5H345.9L340.7 34.8L331.3 11.8H317.7V91.7002H333.4V53.3H334.1L339.7 68.3L349.1 91.7002H362.4V11.8H347ZM370.7 11.8V91.7002H370.8V92H407.4V77H386.5V58.9001H405V43.9001H386.5V26.8H407.4V11.8H370.7ZM440.9 12.8C438.1 12.1001 434.9 11.8 431.8 11.8L412.6 11.9001V91.8H428.3V60.7002H431.4L440.8 91.8H456.9L456.867 91.7H473L475.4 76H487.3L489.8 91.7H506.2L490.8 11.8H471.6L456.696 91.1865L445.4 57.2002C448.2 55.1001 450.6 52.3 452 48.8C453.4 45.3 454.1 41.1001 454.1 35.5C454.1 30.9001 453.4 27.4001 452.4 24.3C451.4 21.2002 450 18.7002 447.9 17C446.1 14.9001 443.7 13.5 440.9 12.8ZM428.7 27.2002V45.6001H431.1C432.1 45.6001 433.2 45.6001 434.2 45.3C435.2 45 435.9 44.6001 437 43.9001C437.7 43.2002 438.4 42.2002 438.7 40.8C438.746 40.5874 438.794 40.3748 438.842 40.1597C439.112 38.9587 439.4 37.6812 439.4 35.9001C439.4 32.8 438.7 30.7002 437.3 29.3C435.9 27.9001 433.8 27.2002 431.4 27.2002H428.7ZM477.6 61.4001L479.3 48.8L481 32.7H481.8L483.5 48.8L484.9 61.4001H477.6ZM510 11.8V91.7H546.6V76.7H525.7V11.8H510ZM242.3 171.6H254.2L256.6 187.3H273L258 107.4H238.8L223.8 187.3H240.2L242.3 171.6ZM244.8 157L246.5 144.4L247.9 128H248.6L250.7 144.4L252.1 157H244.8ZM315.6 174C316.3 170.9 316.6 167.7 316.6 163.9C316.6 160.8 316.6 158 316.4 155.4C316 153 315.3 150.5 314.3 148.8C313.2 147.1 311.5 145.3 309.4 143.6C307.3 142.2 304.2 140.5 300.7 139.1L295.8 136.7C294.4 136 293.7 135.3 293 134.6C292.908 134.385 292.777 134.141 292.642 133.886C292.335 133.313 292 132.685 292 132.2C291.7 131.5 291.7 130.4 291.7 129.4V126.6C291.7 125.758 291.984 125.128 292.253 124.532C292.303 124.421 292.353 124.31 292.4 124.2C292.455 124.103 292.509 124.006 292.562 123.909C292.891 123.313 293.197 122.758 293.8 122.5C294.5 122.1 295.2 121.8 296.2 121.8C297.428 121.8 298.117 122.108 298.74 122.386C298.828 122.425 298.914 122.463 299 122.5C299.4 122.8 300.1 123.5 300.4 124.2C300.441 124.313 300.481 124.423 300.52 124.529C300.859 125.448 301.1 126.103 301.1 127V130.3L316.5 126.8C316.5 124.3 316.2 122.2 315.5 119.8C314.8 117.4 313.8 115.3 312.4 113.2C310.6 111.1 308.5 109.7 306.1 108.3C303.6 107.3 300.1 106.6 296.3 106.6C292.8 106.6 289.7 107.3 286.9 108.3C284.4 109.3 282.3 110.7 280.6 112.8C279.2 114.9 277.8 117.3 277.1 120.1C276.4 122.9 276.1 126.1 276.1 129.2C276.1 131.694 276.417 133.871 276.698 135.801C276.733 136.037 276.767 136.271 276.8 136.5C277.1 139 277.8 140.7 279.2 142.8C280.6 144.9 282.4 146.7 284.8 148.4C287.104 150.128 290.145 151.487 293.746 153.097L294.2 153.3C294.674 153.495 295.102 153.659 295.493 153.81C296.506 154.198 297.279 154.495 298 155C298.999 155.699 299.698 156.399 300.398 157.098L300.4 157.1C300.7 157.8 301.1 158.9 301.4 159.9C301.7 160.9 301.7 162 301.7 163.7V167.2C301.7 168.6 301.3 169.6 301 170.3C300.92 170.44 300.844 170.58 300.768 170.72C300.464 171.28 300.16 171.84 299.6 172.4C298.9 172.8 297.8 173.1 296.8 173.1C294.7 173.1 293.3 172.4 292.6 171C291.9 169.6 291.2 167.2 291.2 164.4L275.5 167.5C275.5 170.3 275.8 173.1 276.5 175.5C277.2 177.9 278.3 180.4 280 182.1C281.4 184.2 283.5 185.6 286.3 186.6C288.7 187.6 291.9 188.3 295.7 188.3C299.9 188.3 303 187.6 305.8 186.6C308.3 185.5 310.7 183.8 312.1 181.7C313.9 179.6 314.9 177.1 315.6 174ZM362.1 174C362.8 170.9 363.1 167.7 363.1 163.9C363.1 162.615 363.031 161.382 362.965 160.194C362.871 158.514 362.783 156.923 362.9 155.4C362.5 153 361.8 150.5 360.8 148.8C359.7 147.1 358 145.3 355.9 143.6C353.8 142.2 350.7 140.5 347.2 139.1L342.3 136.7C340.9 136 340.2 135.3 339.5 134.6C339.2 133.9 338.5 132.9 338.5 132.2C338.2 131.5 338.2 130.4 338.2 129.4V126.6C338.2 125.758 338.484 125.128 338.753 124.532C338.803 124.421 338.853 124.31 338.9 124.2C338.955 124.103 339.009 124.006 339.062 123.909C339.391 123.313 339.697 122.758 340.3 122.5C341 122.1 341.7 121.8 342.7 121.8C343.928 121.8 344.617 122.108 345.24 122.386C345.328 122.425 345.414 122.463 345.5 122.5C345.9 122.8 346.6 123.5 346.9 124.2C346.941 124.313 346.981 124.423 347.02 124.529C347.359 125.448 347.6 126.103 347.6 127V130.3L363 126.8C363 124.3 362.7 122.2 362 119.8C361.3 117.4 360.3 115.3 358.9 113.2C357.1 111.1 355 109.7 352.6 108.3C350.1 107.3 346.6 106.6 342.8 106.6C339.3 106.6 336.2 107.3 333.4 108.3C330.9 109.3 328.8 110.7 327.1 112.8C325.7 114.9 324.3 117.3 323.6 120.1C322.9 122.9 322.6 126.1 322.6 129.2C322.6 131.694 322.917 133.871 323.198 135.801C323.233 136.037 323.267 136.271 323.3 136.5C323.6 139 324.3 140.7 325.7 142.8C327.1 144.9 328.9 146.7 331.3 148.4C333.604 150.128 336.645 151.487 340.246 153.097L340.7 153.3C341.174 153.495 341.602 153.659 341.993 153.81C343.006 154.198 343.779 154.495 344.5 155C345.5 155.7 346.2 156.4 346.9 157.1C347.2 157.8 347.6 158.9 347.9 159.9C348.2 160.9 348.2 162 348.2 163.7V167.2C348.2 168.6 347.8 169.6 347.5 170.3C347.42 170.44 347.344 170.58 347.268 170.72C346.964 171.28 346.66 171.84 346.1 172.4C345.4 172.8 344.3 173.1 343.3 173.1C341.2 173.1 339.8 172.4 339.1 171C338.4 169.6 337.7 167.2 337.7 164.4L322 167.5C322 170.3 322.3 173.1 323 175.5C323.7 177.9 324.8 180.4 326.5 182.1C327.9 184.2 330 185.6 332.8 186.6C335.2 187.6 338.4 188.3 342.2 188.3C346.4 188.3 349.5 187.6 352.3 186.6C354.8 185.5 357.2 183.8 358.6 181.7C360.4 179.6 361.4 177.1 362.1 174ZM369.3 107.4V187.3H406V172.6H385.1V154.5H403.6V139.5H385.1V122.4H406V107.4H369.3ZM430.8 161.5L434.3 171.6H444.6L447.7 162.2L451.5 150H451.8V187.3H467.5V107.4H452.8L445.1 128.3L439.5 144.4H438.8L433.6 128.7L425.6 107.4H410.9V187.3H426.6V149.6H427.3L430.8 161.5ZM506.396 145.481L506.2 145.4C507.6 144.8 509 144.1 509.9 142.8C510.195 142.424 510.483 142.077 510.76 141.743C511.515 140.834 512.188 140.024 512.7 139C513.4 137.6 513.8 136.2 514.1 134.5C514.4 132.7 514.4 131.3 514.4 129.6C514.4 122.2 512.7 116.6 509.2 112.8C505.7 108.9 500.1 107.2 493.1 107.2H475V186.8H492.8C500.2 186.8 505.8 185.1 509.6 180.9C513.5 177.1 515.2 170.8 515.2 162.1C515.2 160.4 515.2 158.6 514.9 156.9C514.9 155.1 514.2 153.4 513.5 152C512.8 150.6 511.7 149.2 510.7 148.2C509.738 146.854 508.037 146.155 506.396 145.481ZM498.2 123.8C499.2 124.9 499.9 127 499.9 130.1C499.9 135.7 497.8 138.1 493 138.1H490.9V122.4H492.6C495.1 122.4 497.2 122.8 498.2 123.8ZM498.9 154.9C499.9 155.9 500.6 158.4 500.6 161.5V166.1C500.378 167.137 500.1 168.01 499.85 168.799C499.762 169.075 499.678 169.341 499.6 169.6C499.505 169.735 499.416 169.865 499.33 169.99C498.781 170.79 498.365 171.395 497.5 172C496.8 172.4 495.4 172.7 494 172.7H491.2V152.8H494C496.1 152.8 497.9 153.5 498.9 154.9ZM524 107.4V187.3H560.6V172.3H539.7V107.4H524ZM579.8 123.4L577 136.7H576.3L573.5 123.4L569.7 107.3H552.9L568.6 154.8V187.3H584.3V155.2L599.7 107.7H583.3L579.8 123.4Z" fill="black"/>
<path fill-rule="evenodd" clip-rule="evenodd" d="M191 100.1C191 96.2998 194.1 93.0999 198 92.7998C197.7 89 197.3 84.7998 196.6 80.8999C192.8 81.8999 188.9 79.5 187.9 76C186.9 72.2 189.3 68.2998 192.8 67.2998C191.4 63.5 190 60 188.3 56.5C184.8 58.5999 180.6 57.2 178.5 54.0999C176.4 50.5999 177.8 46.3999 180.9 44.2998C178.8 41.2 176.4 38 173.6 34.8999C170.8 37.7 166.3 37.7 163.5 34.8999C160.7 32.0999 160.7 27.5999 163.5 24.7998C160.7 22.3999 157.6 19.8999 154.1 17.5C152 21 147.8 22 144.3 19.8999C140.8 17.7998 139.8 13.5999 141.9 10.0999C138.4 8.3999 134.9 7 131.1 5.59985C130.1 9.3999 126.2 11.5 122.4 10.5C118.6 9.5 116.5 5.59985 117.5 1.7998C113.7 1.09985 109.8 0.399902 106 0.399902C106 4.19995 102.9 7.69995 99 7.69995C95.2 7.69995 92 4.59985 92 0.399902C88.2 0.699951 84.3 1.09985 80.5 1.7998C81.5 5.59985 79.5 9.5 75.6 10.5C71.8 11.5 67.9 9.09985 66.9 5.59985C63.1 7 59.6 8.3999 56.1 10.0999C58.2 13.5999 56.8 17.7998 53.7 19.8999C50.2 22 46 20.5999 43.9 17.5C40.8 19.5999 37.6 22 34.5 24.7998C37.3 27.5999 37.3 32.0999 34.5 34.8999C31.7 37.7 27.2 37.7 24.4 34.8999L17.1 44.2998C20.6 46.3999 21.6 50.5999 19.5 54.0999C17.4 57.5999 13.2 58.5999 9.70001 56.8999C8.37378 59.6304 7.2301 62.5435 6.12659 65.3542C5.81561 66.1465 5.50781 66.9304 5.20001 67.7C9 68.7 11.1 72.5999 10.1 76.3999C9.09998 80.2 5.20001 82.2998 1.40002 81.2998C0.700012 85.0999 0 89 0 93.2C3.79999 93.2 7 96.2998 7 100.5C7 104.3 3.90002 107.5 0 107.5C0.299988 111.3 0.700012 115.5 1.40002 119.4C5.20001 118.4 9.09998 120.8 10.1 124.3C11.1 128.1 8.70001 132 5.20001 133C6.59998 136.8 8 140.3 9.70001 144.2C13.2 142.1 17.4 143.5 19.5 147C21.6 150.5 20.2 154.7 17.1 156.8C19.2 159.9 21.6 163.1 24.4 166.2C27.2 163.4 31.7 163.4 34.5 166.2C37.3 169 37.3 173.5 34.5 176.3C37.3 178.7 40.4 181.2 43.9 183.6C46 180.1 50.2 179.1 53.7 180.8C57.2 182.9 58.2 187.1 56.1 190.6C59.6 192.3 63.1 193.7 66.9 195.1C67.9 191.3 71.8 189.2 75.6 190.2C79.4 191.2 81.5 195.1 80.5 198.9C84.3 199.6 88.2 200.3 92 200.3C92 196.5 95.1 193.3 99 193.3C102.8 193.3 106 196.4 106 200.3C109.8 200 113.7 199.6 117.5 198.9C116.5 195.1 118.9 191.2 122.4 190.2C126.2 189.2 130.1 191.6 131.1 195.1C134.9 193.7 138.4 192.3 141.9 190.6C139.8 187.1 141.2 182.9 144.3 180.8C147.8 178.7 152 180.1 154.1 183.2C157.2 181.1 160.4 178.7 163.5 175.9C160.7 173.1 160.7 168.6 163.5 165.8C166.3 163 170.8 163 173.6 165.8L180.9 156.4C177.4 154.3 176.4 150.1 178.5 146.6C180.6 143.1 184.8 142.1 188.3 143.8C190 140.3 191.4 136.5 192.8 132.6C189 131.6 186.9 127.7 187.9 123.9C188.9 120.1 192.8 118 196.6 118.7C197.3 114.9 198 111 198 106.8C194.1 107.4 191 103.9 191 100.1ZM71.6002 41.3999C65.0002 41.3999 59.7002 43.5 55.9002 47.2998C52.4002 51.0999 50.7002 56.3999 50.7002 63V138C50.7002 145 52.4002 149.9 55.6002 153.4C59.1002 156.9 64.3002 158.6 71.3002 158.6C77.9002 158.6 82.8002 156.9 86.3002 153.4C89.8002 149.9 91.5002 144.7 91.5002 138V103.1H70.6002V117.1H75.8002V139.1C75.8002 140.5 75.5002 141.5 74.4002 142.2C73.4002 142.9 72.3002 143.6 70.6002 143.6C68.5002 143.6 67.5002 143.3 66.8002 142.2C66.753 142.043 66.7033 141.883 66.6531 141.721C66.3842 140.856 66.1002 139.943 66.1002 139.1V62.7C66.1002 62 66.1002 61.7 66.4002 60.5999C66.4002 59.8999 66.7002 59.2 67.1002 58.5C67.2599 58.1272 67.533 57.8679 67.8138 57.6013L67.8151 57.5999C68.0614 57.366 68.3135 57.1267 68.5002 56.7998C68.608 56.7537 68.7158 56.7051 68.8246 56.656L68.8328 56.6523C69.4286 56.3835 70.058 56.0999 70.9002 56.0999H71.2002C72.2002 56.0999 72.9002 56.3999 73.6002 56.7998C74.2032 57.0583 74.5094 57.6135 74.8384 58.2102C74.8913 58.3062 74.9448 58.4031 75.0002 58.5C75.0602 58.6401 75.1242 58.7803 75.1882 58.9204C75.4442 59.4802 75.7002 60.04 75.7002 60.5999C75.7002 60.9497 75.7752 61.2998 75.8502 61.6499C75.9252 62 76.0002 62.3501 76.0002 62.7V80.2H91.7002V62.7C91.7002 56.0999 90.0002 51.2 86.5002 47C83.8002 43.5 78.6002 41.3999 71.6002 41.3999ZM131 42.0999H111.8L96.4002 158H113.1L116.6 129.7H126.1L129.6 158H146L131 42.0999ZM114.5 109.1C114.5 113 117.7 116.1 121.5 116.1C125.4 116.1 128.5 113 128.5 109.1C128.5 105.2 125.3 102.1 121.5 102.1C117.6 102.1 114.5 105.3 114.5 109.1Z" fill="#FF2734"/>
</svg>
